<svg width="24" height="24" viewBox="0 0 24 24" fill="none" xmlns="http://www.w3.org/2000/svg">
<path d="M11.045 8.32732C11.045 9.84193 9.81694 11.0695 8.30183 11.0695C6.78667 11.0695 5.55905 9.84193 5.55905 8.32732C5.55905 6.81306 6.78667 5.58545 8.30183 5.58545C9.81694 5.58545 11.045 6.81306 11.045 8.32732Z" fill="#64656D"/>
<path d="M18.448 8.32738C18.448 9.84198 17.2201 11.0695 15.7047 11.0695C14.1899 11.0695 12.9621 9.84198 12.9621 8.32738C12.9621 6.81306 14.1899 5.58545 15.7047 5.58545C17.2201 5.58545 18.448 6.81306 18.448 8.32738Z" fill="#64656D"/>
<path d="M11.045 15.6723C11.045 17.1868 9.81694 18.4144 8.30183 18.4144C6.78667 18.4144 5.55905 17.1868 5.55905 15.6723C5.55905 14.158 6.78667 12.9304 8.30183 12.9304C9.81694 12.9304 11.045 14.158 11.045 15.6723Z" fill="#64656D"/>
<path d="M18.448 15.6723C18.448 17.1868 17.2201 18.4144 15.7047 18.4144C14.19 18.4144 12.9621 17.1868 12.9621 15.6723C12.9621 14.158 14.19 12.9304 15.7047 12.9304C17.2201 12.9304 18.448 14.158 18.448 15.6723Z" fill="#64656D"/>
<path fill-rule="evenodd" clip-rule="evenodd" d="M23.1854 11.9999C23.1854 5.83403 18.1695 0.818115 12.0036 0.818115C5.83772 0.818115 0.821808 5.83403 0.821808 11.9999C0.821808 18.0631 5.6719 23.0142 11.6963 23.1776L12.0036 23.1818C18.1696 23.1818 23.1854 18.1659 23.1854 11.9999ZM1.81835 11.9999C1.81835 6.48443 6.22878 1.97871 11.709 1.82231L12.0036 1.81812C17.6196 1.81812 22.1889 6.3859 22.1889 11.9999C22.1889 17.614 17.6196 22.1818 12.0036 22.1818C6.3877 22.1818 1.81835 17.6139 1.81835 11.9999Z" fill="#64656D"/>
</svg>
