<svg width="20" height="14" viewBox="0 0 20 14" fill="none" xmlns="http://www.w3.org/2000/svg">
<path d="M1.03535 8.05669H16.4731L12.4327 12.1972C12.0286 12.6112 12.0286 13.2754 12.4327 13.6895C12.6347 13.8965 12.8956 14 13.165 14C13.4343 14 13.6953 13.8965 13.8973 13.6895L19.697 7.74615C20.101 7.3321 20.101 6.6679 19.697 6.25385L13.8973 0.310536C13.4933 -0.103512 12.8451 -0.103512 12.4411 0.310536C12.037 0.724584 12.037 1.38879 12.4411 1.80283L16.4815 5.94332H1.03535C0.462963 5.94332 0 6.41775 0 7.00431C0 7.59088 0.462963 8.05669 1.03535 8.05669Z" fill="#141518"/>
</svg>
