<svg width="20" height="14" viewBox="0 0 20 14" fill="none" xmlns="http://www.w3.org/2000/svg">
<path d="M18.998 6.39104L4.05703 6.39104L7.96741 2.48065C8.35845 2.08961 8.35845 1.46232 7.96741 1.07128C7.77189 0.875764 7.51935 0.778004 7.25866 0.778004C6.99796 0.778004 6.74542 0.875764 6.5499 1.07128L0.936863 6.68432C0.545824 7.07536 0.545824 7.70265 0.936863 8.09369L6.5499 13.7067C6.94094 14.0978 7.56823 14.0978 7.95927 13.7067C8.35031 13.3157 8.35031 12.6884 7.95927 12.2974L4.04888 8.38697L18.998 8.38697C19.5519 8.38697 20 7.9389 20 7.38493C20 6.83096 19.5519 6.39104 18.998 6.39104Z" fill="#141518"/>
</svg>
